<svg aria-hidden="true" style="position: absolute; width: 0; height: 0; overflow: hidden;" version="1.1" xmlns="http://www.w3.org/2000/svg" xmlns:xlink="http://www.w3.org/1999/xlink">
<defs>
<symbol id="advan-1" viewBox="0 0 32 32">
<path d="M31.182 11.726c-0.2-0.235-0.487-0.391-0.811-0.417l-0.004-0c-0.319-0.026-0.628 0.074-0.872 0.282l-0.91 0.774c-0.286-0.523-0.441-1.115-0.441-1.714v-2.748h0.517c0.235 0 0.425-0.19 0.425-0.425v0-0.977c0-1.404-1.143-2.547-2.547-2.547h-7.008c-1.404 0-2.547 1.143-2.547 2.547v0.977c0 0.234 0.19 0.425 0.425 0.425v0h0.517v2.736c0 0.567-0.139 1.129-0.397 1.631l-0.799-0.68c-0.207-0.178-0.477-0.286-0.773-0.286-0.035 0-0.069 0.001-0.103 0.004l0.004-0c-0.328 0.026-0.616 0.182-0.814 0.416l-0.001 0.002c-0.428 0.503-0.367 1.259 0.136 1.687l1.079 0.918c-0.471 1.015-0.723 2.129-0.723 3.253v1.209h-14.578c-0.234 0-0.424 0.19-0.424 0.425 0 0.024 0.002 0.048 0.006 0.072l-0-0.003 2.044 12.357c0.034 0.203 0.209 0.355 0.419 0.355 0 0 0 0 0 0h25.405c1.174 0 2.13-0.955 2.13-2.13v-12.275c0-1.093-0.238-2.175-0.683-3.167l1.193-1.016c0.502-0.428 0.563-1.185 0.136-1.687zM17.834 6.501c0-0.936 0.762-1.698 1.698-1.698h7.008c0.936 0 1.698 0.762 1.698 1.698v0.553h-10.404v-0.553zM27.296 7.903v1.271h-8.52v-1.271h8.52zM15.73 12.767c-0.075-0.064-0.122-0.159-0.122-0.265 0-0.086 0.031-0.165 0.083-0.226l-0 0c0.058-0.068 0.142-0.114 0.236-0.121l0.001-0c0.009-0.001 0.019-0.001 0.029-0.001 0.086 0 0.164 0.031 0.225 0.083l-0-0 0.878 0.747c-0.123 0.163-0.252 0.353-0.372 0.548l-0.019 0.033-0.937-0.798zM19.305 19.643l-0.404 2.442h-17.039l-0.404-2.442h17.847zM17.401 31.151h-14.040l-1.359-8.216h16.758l-1.359 8.216zM29.687 29.87c0 0.706-0.574 1.28-1.28 1.28h-10.144l1.962-11.863c0.004-0.021 0.006-0.045 0.006-0.069 0-0.234-0.19-0.425-0.424-0.425h-3.421v-1.209c0-1.511 0.508-3.001 1.431-4.197l0.042-0.054c0.592-0.768 0.918-1.725 0.918-2.694v-0.616h8.52v0.627c0 0.974 0.329 1.934 0.926 2.704l0.023 0.030c0.93 1.199 1.442 2.695 1.442 4.212v12.274zM30.496 12.767l-1.043 0.888c-0.138-0.231-0.265-0.422-0.4-0.607l0.015 0.022 0.977-0.832c0.060-0.052 0.138-0.083 0.224-0.083 0.010 0 0.020 0 0.030 0.001l-0.001-0c0.095 0.008 0.179 0.053 0.236 0.121l0 0.001c0.051 0.060 0.083 0.139 0.083 0.225 0 0.106-0.047 0.201-0.122 0.264l-0 0z"></path>
<path d="M2.432 8.401c0.13 0.158 0.133 0.388 0.009 0.559l-0.707 0.975c-0.244 0.336-0.342 0.748-0.276 1.16s0.287 0.773 0.623 1.017 0.748 0.341 1.16 0.276c0.412-0.066 0.773-0.287 1.017-0.623l0.741-1.022c0.12-0.165 0.335-0.235 0.525-0.168 0.009 0.003 0.018 0.006 0.028 0.009 0.095 0.033 0.191 0.064 0.286 0.093 0.010 0.003 0.019 0.006 0.029 0.009 0.194 0.058 0.328 0.243 0.324 0.451l-0.028 1.695c-0.014 0.86 0.674 1.57 1.533 1.584l0.026 0c0.848 0 1.545-0.683 1.559-1.534l0.028-1.695c0.003-0.208 0.143-0.389 0.339-0.44 0.010-0.003 0.020-0.005 0.030-0.009 0.149-0.039 0.246-0.067 0.342-0.098l-0.053 0.014c0.010-0.003 0.019-0.005 0.030-0.009 0.19-0.061 0.403 0.016 0.517 0.185l0.707 1.046c0.482 0.712 1.453 0.9 2.165 0.418 0.344-0.233 0.577-0.586 0.656-0.996s-0.005-0.825-0.238-1.169l-0.675-0.998c-0.050-0.073-0.080-0.163-0.080-0.26 0-0.117 0.043-0.224 0.114-0.305l-0 0.001c0.004-0.005 0.009-0.010 0.013-0.015 1.004-1.156 1.592-2.572 1.702-4.098 0.001-0.009 0.001-0.020 0.001-0.030 0-0.234-0.19-0.425-0.425-0.425h-13.174c-0.234 0-0.425 0.19-0.425 0.425 0 0.011 0 0.021 0.001 0.031l-0-0.001c0.103 1.446 0.643 2.806 1.562 3.932 0.003 0.005 0.007 0.009 0.011 0.013zM13.983 4.85c-0.171 1.176-0.671 2.263-1.463 3.166-0.006 0.007-0.012 0.014-0.018 0.022l-0.001 0.001c-0.369 0.447-0.401 1.088-0.074 1.571l0.675 0.998c0.076 0.111 0.121 0.248 0.121 0.395 0 0.049-0.005 0.096-0.014 0.142l0.001-0.005c-0.037 0.19-0.145 0.349-0.296 0.452l-0.002 0.002c-0.324 0.219-0.767 0.134-0.986-0.19l-0.707-1.046c-0.324-0.479-0.932-0.692-1.477-0.519-0.009 0.002-0.018 0.005-0.027 0.008-0.085 0.026-0.17 0.051-0.255 0.074l-0.025 0.007c-0.564 0.147-0.964 0.66-0.973 1.248l-0.028 1.695c-0.006 0.391-0.334 0.704-0.721 0.698-0.188-0.003-0.365-0.080-0.498-0.217s-0.204-0.316-0.201-0.504l0.028-1.695c0.010-0.587-0.374-1.113-0.932-1.279l-0.027-0.009c-0.128-0.038-0.212-0.066-0.295-0.095l0.044 0.014c-0.005-0.002-0.014-0.005-0.023-0.008l-0.004-0.001c-0.127-0.046-0.273-0.073-0.426-0.073-0 0-0.001 0-0.001 0h0c-0.412 0-0.815 0.196-1.067 0.543l-0.741 1.022c-0.23 0.317-0.675 0.388-0.992 0.158-0.152-0.111-0.253-0.275-0.283-0.463s0.014-0.376 0.125-0.528l0.707-0.975c0.344-0.475 0.334-1.117-0.022-1.572-0.006-0.008-0.011-0.014-0.016-0.020l0.001 0.001c-0.718-0.875-1.176-1.91-1.337-3.017h12.228zM20.3 3.249h1.295c0.235-0 0.425-0.19 0.425-0.425 0-0.028-0.003-0.054-0.008-0.081l0 0.003-0.207-1.11c-0.004-0.027-0.006-0.058-0.006-0.090 0-0.385 0.312-0.698 0.698-0.698 0 0 0 0 0 0h1.079c0 0 0 0 0 0 0.385 0 0.698 0.312 0.698 0.698 0 0.033-0.002 0.066-0.007 0.097l0-0.004-0.207 1.106c-0.005 0.023-0.007 0.050-0.007 0.078 0 0.234 0.19 0.425 0.424 0.425h1.321c0.235 0 0.425-0.19 0.425-0.425s-0.19-0.425-0.425-0.425v0h-0.81l0.114-0.608 0.003-0.019 0.001-0.010c0.010-0.065 0.015-0.141 0.015-0.217 0-0.854-0.692-1.547-1.547-1.547-0 0-0 0-0 0h-1.079c-0 0-0 0-0 0-0.854 0-1.546 0.692-1.546 1.546 0 0.083 0.007 0.165 0.019 0.245l-0.001-0.009 0.115 0.617h-0.783c-0.235 0-0.425 0.19-0.425 0.425s0.19 0.425 0.425 0.425c0 0 0 0 0 0v0z"></path>
</symbol>
<symbol id="advan-2v1" viewBox="0 0 32 32">
<path d="M15 0.081c-0.306 0.1-0.831 0.637-0.925 0.956-0.056 0.194-0.075 1.306-0.075 4.281v4.025l-0.35-0.025-0.356-0.019 0.037-0.512c0.025-0.275 0.063-0.919 0.081-1.431 0.050-1.013 0.012-1.169-0.281-1.294-0.306-0.125-1.656-0.356-1.794-0.306-0.113 0.037-0.194-0.025-0.519-0.381-0.688-0.775-1.719-1.331-2.775-1.506-0.456-0.075-0.487-0.075-0.656 0.050-0.131 0.1-0.175 0.181-0.188 0.406-0.044 0.65 0.388 1.787 0.956 2.537 0.537 0.713 1.563 1.425 2.325 1.625 0.344 0.094 0.387 0.119 0.356 0.231-0.025 0.069-0.044 0.131-0.056 0.144-0.006 0.006-0.15-0.050-0.319-0.119-0.469-0.213-0.887-0.306-1.356-0.306-0.387 0-0.425-0.012-0.481-0.15-0.094-0.25-0.25-0.287-1.219-0.287-1.206 0-1.15-0.056-1.338 1.294-0.075 0.556-0.169 1.325-0.213 1.706-0.050 0.5-0.094 0.681-0.15 0.662-0.044-0.019-0.281-0.050-0.531-0.069-0.969-0.088-1.938 0.294-2.706 1.063-1.050 1.050-1.563 2.963-1.25 4.688 0.050 0.275 0.094 0.538 0.094 0.575 0 0.056-0.144 0.081-0.5 0.081-0.456 0-0.519 0.012-0.662 0.156l-0.156 0.156 0.025 3.613c0.019 3.394 0.031 3.637 0.15 4.137 0.725 2.962 2.725 4.994 5.644 5.738l0.656 0.169h9.469c7.819 0 9.544-0.012 9.906-0.087 2.731-0.538 4.875-2.413 5.75-5.019 0.375-1.137 0.406-1.488 0.406-5.225v-3.331l-0.156-0.15c-0.15-0.156-0.163-0.156-1.281-0.156h-1.131l0.394-0.45c0.55-0.625 0.762-0.956 1.113-1.694 1.063-2.231 0.837-4.65-0.556-6.050-0.606-0.6-1.512-0.988-2.331-0.994-0.194 0-0.238-0.025-0.238-0.125 0-0.094 0.044-0.125 0.175-0.125 0.725 0 2.106-0.9 2.738-1.787 0.519-0.725 0.894-1.731 0.9-2.388 0-0.2-0.038-0.306-0.156-0.419-0.175-0.181-0.256-0.188-0.894-0.056-0.95 0.194-1.931 0.731-2.5 1.375-0.275 0.313-0.325 0.338-0.456 0.281-0.081-0.037-0.494-0.138-0.919-0.219-1.219-0.244-1.212-0.244-1.275 1.362-0.025 0.656-0.063 1.313-0.081 1.456l-0.038 0.262-0.2-0.119c-0.606-0.35-1.694-0.475-2.438-0.281-0.506 0.131-1.063 0.425-1.387 0.738-0.331 0.319-0.363 0.531-0.125 0.762 0.212 0.219 0.481 0.206 0.781-0.031 0.131-0.106 0.406-0.269 0.606-0.363 0.319-0.15 0.438-0.169 0.994-0.169 0.6 0 0.644 0.012 1.106 0.238 0.344 0.169 0.606 0.363 0.913 0.675 0.25 0.244 0.488 0.431 0.556 0.431s0.3-0.081 0.512-0.181c1.081-0.512 2.331-0.356 3.063 0.381 0.331 0.325 0.625 0.856 0.788 1.394 0.15 0.5 0.156 1.7 0.006 2.306-0.225 0.894-0.738 1.919-1.262 2.519l-0.262 0.294-0.038-0.669c-0.087-1.419-0.456-2.544-1.188-3.637-0.325-0.488-1.238-1.381-1.675-1.644-1.363-0.806-3.069-0.706-4.144 0.244l-0.212 0.181-0.3-0.419c-0.675-0.944-1.512-1.938-1.669-1.981-0.2-0.050-0.256-0.025-1.031 0.412-0.356 0.2-0.656 0.363-0.675 0.363-0.012 0-0.025-1.931-0.025-4.287 0-3.188-0.019-4.356-0.075-4.55-0.1-0.344-0.619-0.863-0.962-0.963-0.319-0.094-1.662-0.087-1.963 0.006zM16.844 1.156l0.156 0.15v15.887l0.156 0.15c0.2 0.206 0.488 0.206 0.688 0 0.156-0.15 0.156-0.163 0.156-1.269v-1.119l0.181-0.25c0.512-0.713 1.613-1.119 2.569-0.956 0.575 0.094 0.656 0.044 0.994-0.644 0.188-0.394 0.344-0.606 0.6-0.844 0.856-0.787 1.9-0.938 2.969-0.444 0.538 0.25 1.481 1.2 1.856 1.869 0.45 0.806 0.769 2.013 0.769 2.9 0 0.5-0.106 1.225-0.194 1.331-0.094 0.106-3.556 0.125-3.556 0.019 0-0.038-0.069-0.137-0.156-0.219-0.144-0.15-0.175-0.156-1.081-0.156-1.106 0-1.225 0.050-1.225 0.494-0.006 0.137-0.012 0.256-0.025 0.256-0.006 0-0.175-0.081-0.375-0.181-1.113-0.563-2.506-0.656-3.688-0.25-0.288 0.1-0.525 0.119-1.494 0.119h-1.144v-16.694l0.156-0.15c0.144-0.15 0.194-0.156 0.844-0.156s0.7 0.006 0.844 0.156zM9.338 5.4c0.537 0.344 1.050 0.9 1.306 1.425 0.3 0.625 0.331 0.737 0.188 0.737-0.338-0.006-1.256-0.606-1.756-1.156-0.306-0.338-0.65-0.944-0.738-1.294l-0.037-0.175 0.344 0.119c0.194 0.069 0.5 0.219 0.694 0.344zM30.406 5.306c-0.212 0.638-0.769 1.319-1.488 1.806-0.344 0.244-0.781 0.444-0.938 0.45-0.144 0-0.113-0.119 0.181-0.731 0.244-0.513 0.837-1.15 1.313-1.431 0.319-0.188 0.981-0.469 1.012-0.431 0.012 0.013-0.019 0.162-0.081 0.338zM26.894 6.438c0.050 0.044-0.050 2.025-0.119 2.412-0.031 0.156-0.081 0.206-0.262 0.262-0.125 0.037-0.238 0.063-0.25 0.050s0.006-0.294 0.044-0.619 0.087-0.956 0.106-1.406l0.044-0.819 0.194 0.037c0.106 0.019 0.219 0.056 0.244 0.081zM12.394 6.938c0.050 0.044-0.050 2.012-0.119 2.412-0.031 0.156-0.081 0.206-0.262 0.262-0.125 0.037-0.238 0.063-0.25 0.050s0.006-0.294 0.044-0.619 0.088-0.956 0.106-1.406l0.044-0.819 0.194 0.037c0.106 0.019 0.219 0.056 0.244 0.081zM7.494 9.825c-0.063 0.456-0.144 1.194-0.188 1.644-0.044 0.444-0.081 0.825-0.094 0.838s-0.119-0.044-0.244-0.119l-0.225-0.137 0.037-0.356c0.106-0.963 0.287-2.431 0.313-2.556 0.025-0.113 0.075-0.137 0.269-0.137h0.237l-0.106 0.825zM9.662 9.525c0.506 0.131 0.95 0.406 1.412 0.875 0.481 0.481 0.488 0.481 1.15 0.2 0.463-0.194 1.219-0.325 1.544-0.262l0.231 0.044v7.619h-0.438c-0.238 0-0.438-0.006-0.438-0.019 0-0.006 0.044-0.238 0.094-0.512 0.25-1.375-0.025-3.069-0.662-4.125-0.481-0.8-1.469-1.5-2.394-1.7-0.488-0.1-1.194-0.075-1.606 0.069-0.131 0.044-0.25 0.075-0.262 0.063-0.025-0.025 0.188-1.963 0.238-2.2 0.031-0.125 0.069-0.137 0.425-0.137 0.213 0 0.531 0.037 0.706 0.088zM19.831 10.669c0.556 0.7 1.169 1.563 1.169 1.644 0 0.088-0.2 0.438-0.25 0.438-0.019 0-0.113-0.131-0.219-0.3-0.1-0.162-0.438-0.631-0.75-1.044-0.306-0.412-0.6-0.8-0.644-0.856-0.069-0.094-0.056-0.119 0.094-0.2 0.1-0.050 0.194-0.094 0.219-0.1 0.025 0 0.194 0.188 0.381 0.419zM18.975 12l0.587 0.781-0.294 0.075c-0.169 0.044-0.519 0.188-0.781 0.319l-0.488 0.25v-1.325l0.006-1.319 0.188 0.219c0.106 0.119 0.456 0.569 0.781 1zM5.45 12.631c0.388 0.088 0.981 0.369 1.325 0.637 0.338 0.269 0.55 0.256 0.975-0.063 1.162-0.875 2.569-0.813 3.544 0.156 0.381 0.375 0.644 0.863 0.844 1.556 0.125 0.419 0.144 0.625 0.137 1.456-0.006 0.644-0.037 1.075-0.1 1.281l-0.088 0.313-9.706 0.031-0.069-0.231c-0.331-1.194-0.169-2.844 0.375-3.806 0.344-0.6 1.106-1.181 1.731-1.331 0.338-0.081 0.65-0.081 1.031 0zM23.413 19.656c0.075 0.581 0.156 1.275 0.175 1.531l0.044 0.469-0.194 0.106c-0.275 0.156-0.313 0.144-0.313-0.125 0-0.194-0.106-1.175-0.288-2.719l-0.044-0.363 0.488 0.038 0.131 1.063zM20.081 18.719c0.825 0.212 1.962 0.931 1.731 1.094-0.137 0.094-1.094 0.075-1.594-0.031-0.238-0.050-0.606-0.175-0.813-0.281-0.35-0.169-0.975-0.631-1.019-0.75-0.050-0.137 1.2-0.163 1.694-0.031zM1.5 20.25v1.25h-0.5v-2.5h0.5v1.25zM5 20.25v1.25h-2.5v-2.5h2.5v1.25zM8.5 20.25v1.25h-2.5v-2.5h2.5v1.25zM12 20.25v1.25h-2.5v-2.5h2.5v1.25zM15.5 20.25v1.25h-2.5v-2.5h2.5v1.25zM17.75 19.519c0.587 0.569 1.194 0.925 2 1.181 0.4 0.125 0.6 0.144 1.387 0.144h0.913l0.025 0.238c0.019 0.212 0.012 0.238-0.106 0.2-0.069-0.019-0.344-0.069-0.606-0.106-0.556-0.087-1.219-0.006-1.7 0.2-0.269 0.113-0.425 0.125-1.731 0.125h-1.431v-2.5h0.719l0.531 0.519zM26 20.075v1.081h-0.45c-0.25 0-0.569 0.012-0.7 0.031l-0.25 0.031-0.106-0.938c-0.063-0.519-0.113-1.012-0.113-1.113l-0.006-0.169h1.625v1.075zM29.5 20.25v1.25h-2.5v-2.5h2.5v1.25zM31 20.25v1.25h-0.5v-2.5h0.5v1.25zM21.788 22.281c0.181 0.050 0.5 0.212 0.712 0.363 0.725 0.494 0.731 0.5 1.319 0.050 0.781-0.594 1.85-0.712 2.725-0.306 0.413 0.188 1.081 0.869 1.288 1.306 0.456 0.975 0.587 2.4 0.313 3.494-0.294 1.144-0.875 2.188-1.613 2.863-0.919 0.837-1.919 1.106-2.925 0.781-0.313-0.1-0.419-0.094-1.137 0.075-0.581 0.137-1.075 0.063-1.756-0.275-1.119-0.556-1.994-1.769-2.438-3.369-0.15-0.544-0.188-1.931-0.063-2.512 0.131-0.606 0.506-1.387 0.869-1.788 0.313-0.344 0.887-0.688 1.306-0.775 0.35-0.075 1-0.031 1.4 0.094zM1.5 23.75v1.25h-0.5v-2.5h0.5v1.25zM5 23.75v1.25h-2.5v-2.5h2.5v1.25zM8.5 23.75v1.25h-2.5v-2.5h2.5v1.25zM12 23.75v1.25h-2.5v-2.5h2.5v1.25zM15.5 23.75v1.25h-2.5v-2.5h2.5v1.25zM18.125 22.525c0 0.019-0.119 0.212-0.256 0.444-0.281 0.45-0.594 1.269-0.656 1.731l-0.044 0.3h-0.669v-2.5h0.813c0.45 0 0.813 0.012 0.813 0.025zM29.5 23.75c0 1.188-0.006 1.25-0.119 1.25-0.125 0-0.194-0.113-0.194-0.319 0-0.269-0.387-1.306-0.65-1.731l-0.281-0.45h1.244v1.25zM31 23.75v1.25h-0.5v-2.5h0.5v1.25zM1.494 26.481v0.488l-0.113-0.313c-0.212-0.6-0.219-0.656-0.038-0.656 0.156 0 0.156 0.006 0.15 0.481zM5 27.25v1.25h-2.5v-2.5h2.5v1.25zM8.5 27.25v1.25h-2.5v-2.5h2.5v1.25zM12 27.25v1.25h-2.5v-2.5h2.5v1.25zM15.5 27.25v1.25h-2.5v-2.5h2.5v1.25zM17.125 26.262c0 0.5 0.25 1.619 0.469 2.125 0.038 0.1-0.006 0.113-0.525 0.113h-0.569v-2.5h0.625v0.262zM29.5 27.331v1.337l-0.481 0.462c-0.475 0.462-1.15 0.975-1.050 0.8 0.031-0.050 0.131-0.2 0.219-0.337 0.581-0.856 0.925-1.9 1.094-3.3 0.025-0.194 0.069-0.294 0.131-0.294 0.075 0 0.087 0.212 0.087 1.331zM30.813 26.025c0 0.075-0.262 0.85-0.281 0.85s-0.031-0.2-0.031-0.438c0-0.425 0.006-0.438 0.156-0.438 0.087 0 0.156 0.012 0.156 0.025zM5 30v0.5l-0.45-0.225c-0.406-0.206-1.175-0.694-1.175-0.75 0-0.012 0.369-0.025 0.813-0.025h0.813v0.5zM8.5 30.25v0.75h-0.731c-0.656 0-1.35-0.069-1.656-0.163-0.1-0.031-0.112-0.119-0.112-0.688v-0.65h2.5v0.75zM12 30.25v0.75h-2.5v-1.5h2.5v0.75zM15.5 30.25v0.75h-2.5v-1.5h2.5v0.75zM18.313 29.762c0.087 0.137 0.369 0.475 0.625 0.744l0.469 0.494h-2.906v-1.5h0.831l0.825 0.006 0.156 0.256z"></path>
</symbol>
<symbol id="advan-2v2" viewBox="0 0 32 32">
<path d="M13.512 1.094c-0.431 0.119-0.831 0.356-1.075 0.631-0.331 0.381-0.3 0.444 0.769 1.5 1.206 1.194 1.4 1.306 2.338 1.306 0.544 0 0.638 0.013 0.612 0.094-0.012 0.050-0.044 0.2-0.069 0.331-0.038 0.213-0.056 0.237-0.175 0.2-1.294-0.388-2.912 0.050-3.994 1.088-0.619 0.588-1.056 1.325-1.262 2.144-0.056 0.219-0.113 0.4-0.119 0.406-0.006 0.012-0.162-0.056-0.344-0.137-0.6-0.294-1.031-0.375-1.912-0.369-0.719 0-0.869 0.019-1.313 0.175-0.619 0.213-0.975 0.412-1.356 0.775-0.325 0.306-0.362 0.3-0.612-0.050l-0.125-0.175 0.356-0.175c0.438-0.213 0.894-0.65 1.106-1.069 0.169-0.338 0.725-2.331 0.725-2.606 0-0.563-1.125-0.725-2.037-0.294-0.831 0.388-1.194 0.912-1.544 2.244-0.125 0.463-0.237 0.85-0.25 0.862-0.013 0.019-0.15 0-0.3-0.031-0.306-0.075-0.888-0.088-1.106-0.031-0.094 0.025-0.131 0.075-0.113 0.144 0.019 0.056 0.075 0.256 0.131 0.45l0.1 0.35 0.456 0.031c0.581 0.037 1.125 0.281 1.619 0.731 0.194 0.181 0.356 0.35 0.356 0.375s-0.138 0.081-0.306 0.125-0.469 0.175-0.669 0.294c-1.306 0.787-2.15 2.3-2.15 3.85 0 0.7 0.113 1.144 0.544 2.156 0.025 0.056-0.044 0.081-0.225 0.081-0.194 0-0.3 0.038-0.412 0.156l-0.156 0.15v13.887l0.156 0.15 0.15 0.156h29.387l0.15-0.156 0.156-0.15v-13.887l-0.156-0.15c-0.144-0.15-0.175-0.156-1.069-0.156h-0.913l0.1-0.144c0.256-0.363 0.569-0.975 0.712-1.406 0.144-0.425 0.163-0.588 0.163-1.356 0-0.8-0.012-0.919-0.175-1.375-0.319-0.931-0.837-1.662-1.475-2.088l-0.387-0.25 0.306-0.194c0.619-0.394 1.431-0.531 2.044-0.35 0.281 0.088 0.294 0.081 0.375-0.044 0.281-0.45 0.413-0.669 0.413-0.694 0-0.069-0.731-0.294-1.063-0.331l-0.363-0.037-0.025-1.069c-0.031-1.294-0.113-1.581-0.656-2.162-0.462-0.506-1.006-0.769-1.619-0.8-0.419-0.025-0.45-0.019-0.575 0.144-0.131 0.162-0.137 0.237-0.137 1.406 0 1.063 0.019 1.294 0.125 1.644 0.137 0.444 0.462 0.931 0.788 1.169 0.113 0.088 0.212 0.175 0.212 0.194 0 0.075-0.587 0.444-0.613 0.375-0.081-0.238-0.575-0.856-0.875-1.1-1.038-0.838-2.488-1.2-3.731-0.938-0.238 0.050-0.462 0.094-0.5 0.094-0.031 0-0.144-0.125-0.238-0.275-0.238-0.381-0.938-1.019-1.425-1.306-0.688-0.406-1.281-0.563-2.119-0.563-0.413-0.006-0.794 0.025-0.887 0.069-0.206 0.081-0.206 0.075-0.075-0.369 0.225-0.744 0.619-1.3 1.144-1.6 0.156-0.094 0.294-0.169 0.3-0.175s-0.012-0.106-0.044-0.225c-0.031-0.119-0.087-0.331-0.125-0.475l-0.069-0.263-0.294 0.125c-0.163 0.069-0.456 0.25-0.656 0.406l-0.369 0.281-0.706-0.694c-0.875-0.85-1.262-1.063-2.019-1.1-0.313-0.019-0.6 0.006-0.813 0.069zM14.85 2.175c0.287 0.15 1.381 1.237 1.319 1.306-0.1 0.1-0.863 0.094-1.125-0.006-0.319-0.119-1.563-1.325-1.412-1.375 0.050-0.013 0.131-0.044 0.181-0.063 0.181-0.069 0.794 0.013 1.037 0.138zM28.163 5.719c0.275 0.362 0.331 0.619 0.337 1.513 0 0.469-0.025 0.831-0.056 0.831-0.137 0-0.613-0.438-0.756-0.688-0.144-0.256-0.156-0.356-0.175-1.206l-0.025-0.925 0.25 0.125c0.144 0.075 0.331 0.231 0.425 0.35zM5.938 5.656c0 0.056-0.369 1.381-0.431 1.537-0.144 0.388-0.631 0.781-1.088 0.894-0.15 0.037-0.175 0.025-0.144-0.069 0.019-0.063 0.106-0.394 0.2-0.737 0.206-0.775 0.331-1.031 0.644-1.288 0.281-0.237 0.819-0.463 0.819-0.338zM15.625 6.131c0.631 0.181 1.044 0.181 1.762-0.006 0.563-0.138 0.644-0.144 1.119-0.075 1.137 0.162 2.125 0.888 2.613 1.906 0.387 0.806 0.469 1.5 0.281 2.406-0.438 2.131-1.85 3.956-3.181 4.113-0.231 0.031-0.45 0-0.813-0.106-0.644-0.181-1.169-0.181-1.813 0-0.613 0.181-0.963 0.15-1.512-0.119-1.287-0.637-2.581-2.994-2.581-4.713 0-1.344 0.769-2.588 1.956-3.156 0.819-0.4 1.406-0.463 2.169-0.25zM24.056 8.094c0.9 0.213 1.6 0.706 2.019 1.425 0.356 0.613 0.669 0.931 1.238 1.256 0.556 0.325 0.925 0.706 1.188 1.25 0.681 1.4 0.419 2.987-0.675 4.075l-0.394 0.4h-5.981l-0.131-0.212c-0.194-0.313-0.619-0.675-1.050-0.906-0.212-0.113-0.431-0.256-0.481-0.313-0.087-0.1-0.069-0.125 0.212-0.344 0.962-0.731 1.894-2.262 2.3-3.781 0.131-0.494 0.156-0.744 0.163-1.412 0-0.481-0.031-0.925-0.081-1.088-0.044-0.144-0.063-0.287-0.044-0.306 0.144-0.144 1.181-0.169 1.719-0.044zM9.156 9.344c0.369 0.094 1.019 0.387 1.238 0.556 0.075 0.056 0.156 0.294 0.238 0.688 0.213 1.037 0.594 1.95 1.2 2.844l0.313 0.463-0.044 0.506c-0.056 0.656-0.188 1.169-0.431 1.662l-0.2 0.406-8.406 0.031-0.244-0.375c-0.5-0.769-0.681-1.794-0.481-2.65 0.206-0.875 0.85-1.775 1.556-2.188 0.162-0.1 0.494-0.225 0.731-0.287 0.644-0.169 0.956-0.344 1.456-0.825 0.469-0.456 0.831-0.669 1.419-0.825 0.45-0.119 1.194-0.125 1.656-0.006zM13.725 15.188c0.35 0.162 0.938 0.313 1.244 0.313 0.137 0 0.537-0.069 0.894-0.156l0.637-0.162 0.644 0.162c0.625 0.156 1.012 0.181 1.387 0.1 0.163-0.037 0.225-0.006 0.469 0.244 0.156 0.162 0.481 0.4 0.719 0.538l0.438 0.244-3.744 0.019c-2.063 0.006-3.756 0-3.769-0.012s0.019-0.131 0.069-0.262c0.113-0.294 0.262-0.844 0.319-1.169l0.037-0.238 0.2 0.131c0.113 0.075 0.313 0.188 0.456 0.25zM30 19.25v1.75h-28v-3.5h28v1.75zM30 23.75v1.75h-28v-3.5h28v1.75zM30 28.25v1.75h-28v-3.5h28v1.75z"></path>
<path d="M4.969 18.556c-0.281 0.125-0.438 0.375-0.438 0.7 0 0.262 0.031 0.331 0.206 0.506s0.244 0.206 0.513 0.206c0.269 0 0.338-0.031 0.513-0.206s0.206-0.244 0.206-0.512c0-0.262-0.031-0.337-0.194-0.506-0.206-0.206-0.575-0.288-0.806-0.188zM26.469 18.556c-0.281 0.125-0.438 0.375-0.438 0.7 0 0.262 0.031 0.331 0.206 0.506s0.244 0.206 0.512 0.206c0.269 0 0.337-0.031 0.512-0.206s0.206-0.244 0.206-0.512c0-0.262-0.031-0.337-0.194-0.506-0.206-0.206-0.575-0.288-0.806-0.188zM4.969 23.056c-0.281 0.125-0.438 0.375-0.438 0.7 0 0.262 0.031 0.331 0.206 0.506s0.244 0.206 0.513 0.206c0.269 0 0.338-0.031 0.513-0.206s0.206-0.244 0.206-0.512c0-0.262-0.031-0.337-0.194-0.506-0.206-0.206-0.575-0.288-0.806-0.188zM26.469 23.056c-0.281 0.125-0.438 0.375-0.438 0.7 0 0.262 0.031 0.331 0.206 0.506s0.244 0.206 0.512 0.206c0.269 0 0.337-0.031 0.512-0.206s0.206-0.244 0.206-0.512c0-0.262-0.031-0.337-0.194-0.506-0.206-0.206-0.575-0.288-0.806-0.188zM4.969 27.556c-0.281 0.125-0.438 0.375-0.438 0.7 0 0.262 0.031 0.331 0.206 0.506s0.244 0.206 0.513 0.206c0.269 0 0.338-0.031 0.513-0.206s0.206-0.244 0.206-0.512c0-0.262-0.031-0.337-0.194-0.506-0.206-0.206-0.575-0.288-0.806-0.188zM26.469 27.556c-0.281 0.125-0.438 0.375-0.438 0.7 0 0.262 0.031 0.331 0.206 0.506s0.244 0.206 0.512 0.206c0.269 0 0.337-0.031 0.512-0.206s0.206-0.244 0.206-0.512c0-0.262-0.031-0.337-0.194-0.506-0.206-0.206-0.575-0.288-0.806-0.188z"></path>
</symbol>
<symbol id="advan-3" viewBox="0 0 32 32">
<path d="M9.969 0.831c-2.156 0.291-4.053 1.672-5.056 3.684-0.481 0.969-0.734 2.009-0.734 3.031-0.003 0.397 0.013 0.566 0.066 0.816 0.328 1.522 1.419 3.453 3.35 5.934 1.35 1.728 3.166 3.775 5.178 5.831l0.603 0.613 0.006 4.184c0.012 4.553-0.003 4.219 0.178 4.703 0.259 0.688 0.884 1.275 1.644 1.538 0.269 0.094 0.303 0.1 0.781 0.1 0.438 0 0.528-0.009 0.734-0.072 1.006-0.316 1.716-1.122 1.875-2.131 0.019-0.131 0.031-1.634 0.031-4.219l0.003-4.016 0.959-0.972c4.666-4.719 7.387-8.478 8.072-11.15 0.163-0.641 0.212-1.222 0.156-1.831-0.153-1.616-0.8-2.991-1.938-4.125-1.078-1.075-2.409-1.731-3.887-1.922-0.425-0.053-1.262-0.063-1.647-0.016-1 0.125-1.997 0.488-2.813 1.022-0.456 0.3-0.738 0.534-1.163 0.972l-0.369 0.375-0.366-0.375c-0.203-0.206-0.475-0.459-0.603-0.566-0.956-0.772-2.144-1.275-3.375-1.428-0.366-0.044-1.291-0.034-1.688 0.019zM11.953 2.156c1.419 0.303 2.594 1.119 3.453 2.388 0.184 0.275 0.344 0.375 0.594 0.375s0.409-0.1 0.594-0.375c0.863-1.272 2.031-2.081 3.469-2.394 0.291-0.063 0.416-0.069 1.063-0.069 0.822 0 1.075 0.034 1.719 0.25 2.019 0.672 3.453 2.444 3.684 4.55 0.084 0.769-0.019 1.409-0.378 2.331-0.156 0.4-0.625 1.334-0.897 1.787-1.113 1.847-2.85 4.037-5.175 6.516-0.759 0.809-2.409 2.453-3.275 3.262-0.634 0.591-0.784 0.719-0.828 0.694-0.1-0.053-2.994-2.953-3.637-3.644-3.225-3.472-5.241-6.094-6.244-8.125-0.544-1.106-0.709-1.784-0.628-2.563 0.153-1.425 0.741-2.644 1.734-3.6 0.806-0.778 1.75-1.247 2.862-1.431 0.409-0.069 1.484-0.041 1.891 0.047zM15.159 22.488c0.259 0.25 0.516 0.475 0.575 0.5 0.137 0.056 0.394 0.056 0.528 0 0.056-0.022 0.291-0.216 0.522-0.428s0.453-0.416 0.491-0.447l0.069-0.059-0.006 3.466-0.009 3.466-0.113 0.238c-0.141 0.291-0.366 0.522-0.65 0.663-0.194 0.094-0.222 0.1-0.566 0.1s-0.372-0.006-0.566-0.1c-0.284-0.141-0.509-0.372-0.65-0.663l-0.113-0.238-0.009-3.478c-0.003-1.909 0-3.475 0.012-3.475 0.009 0 0.228 0.206 0.484 0.456z"></path>
<path d="M20.863 3.169c-0.284 0.106-0.441 0.325-0.438 0.612 0.003 0.206 0.059 0.325 0.228 0.478 0.134 0.122 0.159 0.128 0.663 0.175 1.063 0.103 1.953 0.725 2.438 1.706 0.181 0.369 0.272 0.706 0.297 1.094 0.022 0.353 0.078 0.513 0.228 0.65 0.225 0.203 0.5 0.228 0.766 0.072 0.106-0.063 0.159-0.125 0.225-0.256 0.081-0.162 0.084-0.188 0.066-0.491-0.103-1.769-1.284-3.3-2.975-3.862-0.512-0.169-1.275-0.259-1.497-0.178z"></path>
</symbol>
<symbol id="facebook-icon" viewBox="0 0 32 32">
<path fill="#fff" style="fill: var(--color1, #fff)" d="M22.143 15.971h-4.033v14.865h-6.112v-14.865h-2.906v-5.222h2.906v-3.382c0-2.417 1.142-6.204 6.167-6.204l4.527 0.019v5.072h-3.284c-0.538 0-1.297 0.272-1.297 1.425v3.073h4.567l-0.534 5.219z"></path>
</symbol>
<symbol id="github-icon" viewBox="0 0 32 32">
<path fill="#fff" style="fill: var(--color1, #fff)" d="M16 0c-8.789 0-16 7.211-16 16 0 7.499 5.262 14.312 12.25 16v-5.293c-0.276 0.070-0.593 0.109-0.919 0.109-0.398 0-0.781-0.059-1.143-0.169l0.028 0.007c-0.946-0.278-1.714-0.909-2.285-1.869-0.363-0.613-1.008-1.28-1.68-1.23l-0.165-1.867c1.454-0.125 2.71 0.886 3.456 2.139 0.333 0.558 0.715 0.885 1.205 1.029 0.472 0.141 0.981 0.074 1.573-0.136 0.149-1.186 0.693-1.629 1.104-2.256-4.168-0.621-5.829-2.832-6.488-4.576-0.874-2.318-0.405-5.213 1.139-7.043 0.030-0.035 0.085-0.128 0.064-0.192-0.709-2.141 0.154-3.91 0.186-4.098 0.818 0.24 0.95-0.243 3.552 1.336l0.448 0.27c0.189 0.112 0.128 0.048 0.317 0.032 1.003-0.282 2.157-0.452 3.349-0.469l0.010-0c1.136 0.014 2.272 0.176 3.403 0.483l0.146 0.016c-0.013-0.003 0.040-0.010 0.128-0.062 3.248-1.968 3.131-1.325 4.003-1.608 0.032 0.189 0.882 1.987 0.182 4.099-0.096 0.291 2.816 2.957 1.202 7.235-0.659 1.744-2.32 3.957-6.486 4.578 0.534 0.816 1.176 1.248 1.173 2.928v6.606c6.986-1.688 12.25-8.501 12.25-16 0-8.789-7.211-16-16-16z"></path>
</symbol>
<symbol id="home-icon" viewBox="0 0 32 32">
<path fill="#d31342" style="fill: var(--color2, #d31342)" d="M30.129 15.447c0.553-0.6 0.5-1.52-0.119-2.054l-13.636-11.77c-0.619-0.534-1.611-0.523-2.217 0.025l-13.682 12.372c-0.606 0.548-0.636 1.466-0.066 2.051l0.343 0.352c0.569 0.584 1.489 0.654 2.053 0.155l1.023-0.903v13.224c0 0.811 0.667 1.468 1.488 1.468h5.333c0.822 0 1.488-0.657 1.488-1.468v-9.252h6.803v9.252c-0.012 0.811 0.576 1.468 1.398 1.468h5.652c0.822 0 1.488-0.657 1.488-1.468v-13.038c0 0 0.282 0.244 0.631 0.546s1.078 0.060 1.631-0.541l0.388-0.42z"></path>
</symbol>
<symbol id="logo-icon" viewBox="0 0 32 32">
<path d="M14.306 0.113c-1.075 0.287-2.050 1.306-2.3 2.388-0.094 0.406-0.081 1.169 0.025 1.581 0.106 0.4 0.331 0.875 0.613 1.288 0.225 0.331 0.356 0.731 0.313 0.969-0.069 0.344-0.419 0.588-1.919 1.319-1.294 0.625-1.481 0.738-1.738 1.025-0.156 0.175-0.331 0.45-0.387 0.613-0.144 0.412-0.131 1.106 0.025 1.45 0.156 0.338 0.156 0.319-0.031 0.319-0.206 0-0.887 0.25-1.25 0.463-0.65 0.381-1.225 1.131-1.506 1.975-0.162 0.475-0.162 1.525 0 2 0.206 0.606 0.494 1.075 0.931 1.506l0.419 0.419v0.637c0 0.356 0.031 0.756 0.075 0.9 0.144 0.481 0.844 1.038 1.319 1.038 0.081 0 0.1 0.156 0.119 1.044 0.019 1.025 0.025 1.056 0.219 1.469 0.106 0.231 0.313 0.544 0.45 0.694 0.281 0.306 0.856 0.637 1.231 0.719l0.244 0.050 0.381 3.4c0.206 1.875 0.412 3.512 0.456 3.644 0.106 0.313 0.394 0.637 0.719 0.813 0.256 0.137 0.287 0.137 3.287 0.137 3.012 0 3.031 0 3.294-0.137 0.306-0.169 0.613-0.525 0.719-0.831 0.038-0.119 0.244-1.75 0.45-3.625l0.381-3.4 0.244-0.050c0.375-0.081 0.95-0.413 1.231-0.719 0.137-0.15 0.344-0.462 0.45-0.694 0.194-0.413 0.2-0.444 0.219-1.469 0.025-0.938 0.038-1.044 0.131-1.044 0.294 0 0.706-0.212 0.962-0.5 0.344-0.381 0.419-0.644 0.419-1.438v-0.637l0.425-0.419c0.431-0.431 0.719-0.9 0.925-1.506 0.163-0.475 0.163-1.525 0-2-0.306-0.906-0.919-1.662-1.669-2.056-0.219-0.119-0.413-0.225-0.425-0.238-0.019-0.012 0.031-0.1 0.1-0.194 0.375-0.506 0.556-1.175 0.488-1.787-0.044-0.438-0.325-1.319-0.569-1.8-0.919-1.831-2.825-3.331-5.694-4.481-0.456-0.181-0.944-0.413-1.081-0.513-0.475-0.344-0.288-0.725 0.581-1.181 0.231-0.119 0.419-0.238 0.419-0.256 0-0.075-1.012-0.563-1.556-0.744-0.756-0.256-1.525-0.306-2.137-0.138zM15.738 1.063l0.3 0.069-0.144 0.3c-0.281 0.569-0.169 1.169 0.306 1.606 0.363 0.337 0.587 0.456 1.531 0.844 3.063 1.244 4.781 2.75 5.463 4.775 0.288 0.863 0.163 1.519-0.381 1.981-0.325 0.281-0.613 0.363-1.275 0.363h-0.538v0.988l1.050 0.019 1.050 0.025 0.475 0.231c0.569 0.281 0.919 0.644 1.194 1.225 0.181 0.381 0.2 0.475 0.2 1.012s-0.019 0.631-0.2 1.012c-0.275 0.581-0.625 0.944-1.194 1.225l-0.475 0.231h-14.2l-0.475-0.231c-0.569-0.281-0.919-0.644-1.194-1.225-0.181-0.381-0.2-0.475-0.2-1.012s0.019-0.631 0.2-1.012c0.275-0.581 0.625-0.944 1.194-1.225l0.475-0.231 8.1-0.037v-0.994h-3.206c-3.2 0-3.206 0-3.481-0.144-0.338-0.169-0.5-0.456-0.5-0.881 0-0.569 0.088-0.644 1.644-1.412 1.938-0.95 2.438-1.394 2.525-2.206 0.050-0.463-0.088-0.869-0.512-1.544-0.45-0.713-0.556-1.063-0.519-1.681 0.081-1.419 1.363-2.369 2.787-2.069zM23.5 18.344c0 0.288-0.025 0.375-0.156 0.5l-0.15 0.156h-7.181c-8.256 0-7.45 0.069-7.5-0.619l-0.025-0.381h15.012v0.344zM22 20.85c0 0.488-0.031 0.962-0.075 1.113-0.1 0.344-0.619 0.863-0.962 0.962-0.369 0.106-9.556 0.106-9.925 0-0.344-0.1-0.863-0.619-0.963-0.962-0.044-0.15-0.075-0.625-0.075-1.113v-0.85h12v0.85zM16.194 26.981l2.981 2.988-0.044 0.356c-0.044 0.344-0.194 0.613-0.344 0.613-0.038 0-1.538-1.469-3.338-3.269-2.969-2.969-3.263-3.281-3.263-3.469v-0.2h1.031l2.975 2.981zM17.744 25.712l1.706 1.712-0.069 0.613c-0.038 0.337-0.081 0.619-0.087 0.631-0.012 0.006-1.069-1.038-2.356-2.325l-2.344-2.344h1.438l1.712 1.712zM19.806 24.137c0 0.081-0.050 0.556-0.106 1.069l-0.106 0.919-2.125-2.125h2.344l-0.006 0.137zM14.938 28.531l2.469 2.469h-1.438l-1.7-1.706-1.7-1.7-0.088-0.769c-0.044-0.419-0.069-0.762-0.050-0.762 0.025 0 1.15 1.113 2.506 2.469zM13.656 30.125l0.875 0.875h-0.644c-0.625 0-0.656-0.006-0.819-0.175-0.15-0.15-0.181-0.238-0.219-0.669-0.025-0.275-0.056-0.594-0.075-0.706-0.025-0.106-0.031-0.2-0.012-0.2 0.012 0 0.412 0.394 0.894 0.875z"></path>
<path d="M19 11.5v0.5h1v-1h-1v0.5z"></path>
</symbol>
<symbol id="quot-icon" viewBox="0 0 32 32">
<path fill="#e1e1e1" style="fill: var(--color3, #e1e1e1)" d="M23.714 4.148c1.428 0 2.777 0.385 4.047 1.156s2.302 1.879 3.095 3.324c0.762 1.445 1.143 3.148 1.143 5.107s-0.476 3.87-1.428 5.733c-0.318 0.674-0.889 1.541-1.715 2.601-0.857 1.060-1.65 1.975-2.38 2.746l-3 3.035-2.143-3.565c1.528-0.964 2.832-2.115 3.931-3.442l0.022-0.027c1.143-1.349 1.714-2.585 1.714-3.71 0-0.578-0.127-1.044-0.38-1.397-1.111 0.803-2.35 1.205-3.714 1.205-0.984 0-1.921-0.305-2.809-0.916-0.917-0.579-1.657-1.359-2.174-2.28l-0.016-0.032c-0.571-0.932-0.857-1.895-0.857-2.891 0-1.125 0.333-2.2 1-3.228 0.641-1.029 1.489-1.871 2.491-2.486l0.033-0.019c1.015-0.61 2.062-0.916 3.142-0.916zM6.619 4.148c1.428 0 2.777 0.385 4.047 1.156s2.302 1.879 3.095 3.324c0.762 1.445 1.143 3.148 1.143 5.107 0 1.381-0.175 2.617-0.524 3.71-0.35 1.124-0.952 2.296-1.81 3.517-0.825 1.156-1.603 2.12-2.333 2.891-0.73 0.803-2 2.136-3.81 3.999l-2.143-3.565c1.528-0.964 2.832-2.115 3.931-3.442l0.022-0.027c1.143-1.349 1.714-2.585 1.714-3.71 0-0.578-0.127-1.044-0.381-1.397-1.111 0.803-2.35 1.205-3.714 1.205-0.984 0-1.921-0.305-2.809-0.916-0.917-0.579-1.657-1.359-2.174-2.28l-0.016-0.032c-0.571-0.932-0.857-1.895-0.857-2.891 0-1.125 0.318-2.2 0.952-3.228 0.641-1.029 1.489-1.871 2.491-2.486l0.033-0.019c1.015-0.61 2.062-0.916 3.143-0.916z"></path>
</symbol>
<symbol id="telegram-icon" viewBox="0 0 32 32">
<path fill="#fff" style="fill: var(--color1, #fff)" d="M12.612 19.671l-0.49 6.444c0.703 0 1.007-0.282 1.372-0.62l3.292-2.938 6.822 4.665c1.251 0.65 2.134 0.307 2.471-1.075l4.479-19.587c0.399-1.727-0.669-2.401-1.887-1.978l-26.323 9.407c-1.796 0.652-1.77 1.585-0.305 2.012l6.729 1.952 15.632-9.129c0.736-0.455 1.405-0.204 0.855 0.252l-12.647 10.596z"></path>
</symbol>
<symbol id="arrow-up" viewBox="0 0 32 32">
<path d="M27.414 12.586l-10-10c-0.781-0.781-2.047-0.781-2.828 0l-10 10c-0.781 0.781-0.781 2.047 0 2.828s2.047 0.781 2.828 0l6.586-6.586v19.172c0 1.105 0.895 2 2 2s2-0.895 2-2v-19.172l6.586 6.586c0.39 0.39 0.902 0.586 1.414 0.586s1.024-0.195 1.414-0.586c0.781-0.781 0.781-2.047 0-2.828z"></path>
</symbol>
<symbol id="arrow-right" viewBox="0 0 32 32">
<path d="M19.414 27.414l10-10c0.781-0.781 0.781-2.047 0-2.828l-10-10c-0.781-0.781-2.047-0.781-2.828 0s-0.781 2.047 0 2.828l6.586 6.586h-19.172c-1.105 0-2 0.895-2 2s0.895 2 2 2h19.172l-6.586 6.586c-0.39 0.39-0.586 0.902-0.586 1.414s0.195 1.024 0.586 1.414c0.781 0.781 2.047 0.781 2.828 0z"></path>
</symbol>
<symbol id="icon-menu-open" viewBox="0 0 46 32">
<path fill="none" stroke="#d41443" style="stroke: var(--color1, #d41443)" stroke-linejoin="miter" stroke-linecap="butt" stroke-miterlimit="4" stroke-width="2.2857" d="M0 2.286h45.714"></path>
<path fill="none" stroke="#d41443" style="stroke: var(--color1, #d41443)" stroke-linejoin="miter" stroke-linecap="butt" stroke-miterlimit="4" stroke-width="2.2857" d="M0 16h45.714"></path>
<path fill="none" stroke="#d41443" style="stroke: var(--color1, #d41443)" stroke-linejoin="miter" stroke-linecap="butt" stroke-miterlimit="4" stroke-width="2.2857" d="M0 29.714h45.714"></path>
</symbol>
<symbol id="icon-menu-close" viewBox="0 0 32 32">
<path fill="none" stroke="#fff" style="stroke: var(--color2, #fff)" stroke-linejoin="miter" stroke-linecap="butt" stroke-miterlimit="4" stroke-width="2" d="M2.519 2l26.963 28"></path>
<path fill="none" stroke="#fff" style="stroke: var(--color2, #fff)" stroke-linejoin="miter" stroke-linecap="butt" stroke-miterlimit="4" stroke-width="2" d="M2 29.481l28-26.963"></path>
</symbol>
</defs>
</svg>
